<?xml version="1.0" encoding="utf-8"?>
<!-- Generator: Adobe Illustrator 16.0.4, SVG Export Plug-In . SVG Version: 6.00 Build 0)  -->
<!DOCTYPE svg PUBLIC "-//W3C//DTD SVG 1.1//EN" "http://www.w3.org/Graphics/SVG/1.1/DTD/svg11.dtd">
<svg version="1.1" id="Layer_1" xmlns="http://www.w3.org/2000/svg" xmlns:xlink="http://www.w3.org/1999/xlink" x="0px" y="0px"
	 width="32px" height="32px" viewBox="0 0 32 32" enable-background="new 0 0 32 32" xml:space="preserve">
<path fill-opacity="0.5" d="M29.5,16.716c0,6.845-5.63,12.392-12.573,12.392h-1.826c-6.944,0-12.574-5.547-12.574-12.392v-1.799
	c0-6.844,5.629-12.392,12.574-12.392h1.826c6.943,0,12.573,5.548,12.573,12.392V16.716z"/>
<path fill="#FFFFFF" d="M16,32C7.178,32,0,24.822,0,16C0,7.177,7.177,0,16,0s16,7.177,16,16C32,24.822,24.822,32,16,32z M16,2.525
	C8.57,2.525,2.527,8.57,2.527,16c0,7.428,6.044,13.475,13.473,13.475c7.43,0,13.473-6.045,13.473-13.475
	C29.473,8.57,23.43,2.525,16,2.525z"/>
<path fill="#F7F7F7" d="M23.875,16.572c-0.414,0.24-5.789,3.353-5.789,3.353s-5.467,3.156-5.844,3.375
	c-0.377,0.218-0.961-0.077-0.961-0.55c0-0.527,0-6.756,0-6.756s0-5.623,0-6.591c0-0.751,0.616-0.916,1.064-0.644
	c0.35,0.211,5.741,3.315,5.741,3.315s5.178,2.984,5.768,3.33C24.443,15.75,24.294,16.332,23.875,16.572z"/>
</svg>
